<svg width="16" height="17" viewBox="0 0 16 17" fill="none" xmlns="http://www.w3.org/2000/svg">
    <g id="logo">
        <path fill-rule="evenodd" clip-rule="evenodd" d="M12 0.5H8V4.5H4H0V8.5V12.5V16.5H4H8V12.5H12H16V8.5V4.5V0.5H12ZM4 12.5H8V8.5H12V4.5H8V8.5H4V12.5Z" fill="white"/>
    </g>

    <g id="github">
        <path d="M15.5 6C9.69875 6 5 10.5882 5 16.2529C5 20.7899 8.00562 24.6219 12.1794 25.9804C12.7044 26.0701 12.9012 25.7625 12.9012 25.4934C12.9012 25.2499 12.8881 24.4425 12.8881 23.5838C10.25 24.058 9.5675 22.9558 9.3575 22.3791C9.23938 22.0843 8.7275 21.1743 8.28125 20.9308C7.91375 20.7386 7.38875 20.2644 8.26813 20.2516C9.095 20.2388 9.68563 20.9949 9.8825 21.3025C10.8275 22.8533 12.3369 22.4175 12.9406 22.1484C13.0325 21.4819 13.3081 21.0334 13.61 20.777C11.2737 20.5207 8.8325 19.6364 8.8325 15.7147C8.8325 14.5997 9.23938 13.6769 9.90875 12.9592C9.80375 12.7029 9.43625 11.6519 10.0138 10.2422C10.0138 10.2422 10.8931 9.97301 12.9012 11.2931C13.7413 11.0624 14.6338 10.947 15.5263 10.947C16.4188 10.947 17.3113 11.0624 18.1513 11.2931C20.1594 9.9602 21.0387 10.2422 21.0387 10.2422C21.6163 11.6519 21.2488 12.7029 21.1438 12.9592C21.8131 13.6769 22.22 14.5868 22.22 15.7147C22.22 19.6492 19.7656 20.5207 17.4294 20.777C17.81 21.0975 18.1381 21.7126 18.1381 22.6738C18.1381 24.0452 18.125 25.1474 18.125 25.4934C18.125 25.7625 18.3219 26.0829 18.8469 25.9804C20.9314 25.2935 22.7428 23.9854 24.026 22.2403C25.3092 20.4953 25.9996 18.4012 26 16.2529C26 10.5882 21.3013 6 15.5 6Z" fill="currentColor"/>
    </g>

    <g id="dribble">
        <path fill-rule="evenodd" clip-rule="evenodd" d="M16.5 4C10.152 4 5 9.152 5 15.5C5 21.848 10.152 27 16.5 27C22.8365 27 28 21.848 28 15.5C28 9.152 22.8365 4 16.5 4ZM24.0958 9.3015C25.5115 11.0255 26.2951 13.1817 26.3167 15.4123C25.9918 15.3505 22.7488 14.6892 19.4814 15.1004C19.4066 14.9394 19.3434 14.764 19.2686 14.5901C19.0688 14.1157 18.8446 13.6298 18.6203 13.1669C22.2371 11.6964 23.8844 9.57606 24.0972 9.30006L24.0958 9.3015ZM16.5 5.69625C18.9941 5.69625 21.2768 6.63063 23.0119 8.16587C22.8365 8.416 21.3516 10.3983 17.8599 11.7079C16.2499 8.75238 14.4674 6.33162 14.1928 5.95788C14.9491 5.78129 15.7234 5.69349 16.5 5.69625ZM12.3212 6.61913C13.6375 8.44338 14.8535 10.3379 15.9638 12.2944C11.3739 13.5162 7.32012 13.4918 6.88312 13.4918C7.19917 12.005 7.85438 10.6114 8.79766 9.41949C9.74094 8.22761 10.9468 7.26973 12.3212 6.62056V6.61913ZM6.67181 15.5144V15.2125C7.09588 15.2269 11.8612 15.2887 16.7631 13.8167C17.0491 14.3644 17.3108 14.9264 17.5609 15.4871L17.1728 15.5992C12.1099 17.2336 9.416 21.6985 9.19031 22.0737C7.56856 20.2734 6.67131 17.936 6.67181 15.5129V15.5144ZM16.5 25.3282C14.3172 25.3316 12.1964 24.6027 10.4769 23.2582C10.6494 22.8959 12.6461 19.0549 18.1833 17.1215C18.2092 17.1086 18.2207 17.1086 18.2466 17.0971C19.1801 19.5068 19.8814 22.0002 20.341 24.5433C19.1277 25.0646 17.8205 25.3318 16.5 25.3282ZM21.9769 23.6449C21.8763 23.0454 21.3516 20.1776 20.0679 16.6471C23.1484 16.1613 25.8423 16.9591 26.1787 17.0712C25.9692 18.3975 25.4876 19.6662 24.7643 20.7974C24.0409 21.9287 23.0914 22.8982 21.9754 23.6449H21.9769Z" fill="currentColor"/>
    </g>

    <g id="figma">
        <path d="M16 16C16 15.1159 16.3687 14.2681 17.0251 13.643C17.6815 13.0179 18.5717 12.6667 19.5 12.6667C20.4283 12.6667 21.3185 13.0179 21.9749 13.643C22.6313 14.2681 23 15.1159 23 16C23 16.8841 22.6313 17.7319 21.9749 18.357C21.3185 18.9821 20.4283 19.3333 19.5 19.3333C18.5717 19.3333 17.6815 18.9821 17.0251 18.357C16.3687 17.7319 16 16.8841 16 16ZM9 22.6667C9 21.7826 9.36875 20.9348 10.0251 20.3096C10.6815 19.6845 11.5717 19.3333 12.5 19.3333H16V22.6667C16 23.5507 15.6313 24.3986 14.9749 25.0237C14.3185 25.6488 13.4283 26 12.5 26C11.5717 26 10.6815 25.6488 10.0251 25.0237C9.36875 24.3986 9 23.5507 9 22.6667ZM16 6V12.6667H19.5C20.4283 12.6667 21.3185 12.3155 21.9749 11.6904C22.6313 11.0652 23 10.2174 23 9.33333C23 8.44928 22.6313 7.60143 21.9749 6.97631C21.3185 6.35119 20.4283 6 19.5 6H16ZM9 9.33333C9 10.2174 9.36875 11.0652 10.0251 11.6904C10.6815 12.3155 11.5717 12.6667 12.5 12.6667H16V6H12.5C11.5717 6 10.6815 6.35119 10.0251 6.97631C9.36875 7.60143 9 8.44928 9 9.33333ZM9 16C9 16.8841 9.36875 17.7319 10.0251 18.357C10.6815 18.9821 11.5717 19.3333 12.5 19.3333H16V12.6667H12.5C11.5717 12.6667 10.6815 13.0179 10.0251 13.643C9.36875 14.2681 9 15.1159 9 16Z" fill="currentColor"/>
    </g>

    <g id="email">
        <path d="M5.07187 9.20292C5.2168 8.57709 5.57307 8.01832 6.08232 7.6181C6.59158 7.21789 7.22365 6.99996 7.875 7H25.125C25.7764 6.99996 26.4084 7.21789 26.9177 7.6181C27.4269 8.01832 27.7832 8.57709 27.9281 9.20292L16.5 16.0865L5.07187 9.20292ZM5 10.8207V20.8847L13.3418 15.8442L5 10.8207ZM14.7189 16.6758L5.27456 22.3807C5.50791 22.8657 5.87619 23.2753 6.33656 23.5619C6.79693 23.8486 7.33044 24.0005 7.875 24H25.125C25.6695 24.0001 26.2028 23.8479 26.6629 23.561C27.123 23.274 27.491 22.8643 27.724 22.3793L18.2796 16.6744L16.5 17.7468L14.7189 16.6744V16.6758ZM19.6582 15.8457L28 20.8847V10.8207L19.6582 15.8442V15.8457Z" fill="currentColor"/>
    </g>

    <g id="discord">
        <path d="M24.1641 7.65906C22.543 6.87826 20.8325 6.32099 19.0751 6.00114C19.0592 5.99832 19.0428 6.00076 19.0283 6.0081C19.0137 6.01544 19.0017 6.02733 18.9938 6.04214C18.7735 6.45211 18.5298 6.98835 18.3595 7.40816C16.4651 7.10643 14.5383 7.10643 12.6439 7.40816C12.4539 6.9405 12.239 6.48443 12.0002 6.04214C11.9922 6.02749 11.9801 6.01574 11.9656 6.00842C11.9511 6.0011 11.9348 5.99856 11.9189 6.00114C10.1611 6.31928 8.45021 6.87684 6.82991 7.65906C6.81605 7.66461 6.80445 7.67504 6.7971 7.68858C3.55651 12.7706 2.66745 17.7279 3.10339 22.623C3.10495 22.6459 3.11901 22.6689 3.1362 22.6836C5.02325 24.1507 7.13396 25.2708 9.37832 25.9962C9.39417 26.0014 9.4112 26.0013 9.42693 25.9957C9.44267 25.99 9.45629 25.9793 9.46582 25.965C9.94707 25.2763 10.3752 24.5498 10.7439 23.7856C10.7516 23.7699 10.7543 23.752 10.7514 23.7345C10.7486 23.7171 10.7405 23.7011 10.7283 23.6889C10.7202 23.6809 10.7107 23.6747 10.7002 23.6708C10.027 23.3993 9.37503 23.0731 8.7502 22.6951C8.73275 22.6847 8.71977 22.6677 8.71395 22.6476C8.70814 22.6274 8.70993 22.6057 8.71895 22.5869C8.72427 22.5747 8.73231 22.564 8.74239 22.5557C8.87364 22.4524 9.00489 22.3442 9.12989 22.236C9.14093 22.2266 9.15418 22.2206 9.16821 22.2186C9.18225 22.2166 9.19655 22.2186 9.20957 22.2245C13.3017 24.1858 17.7314 24.1858 21.7735 22.2245C21.787 22.2183 21.8018 22.2162 21.8164 22.2182C21.831 22.2202 21.8448 22.2264 21.8563 22.236C21.9813 22.3442 22.1126 22.4524 22.2438 22.5557C22.2544 22.5639 22.263 22.5747 22.2687 22.5872C22.2744 22.5996 22.277 22.6134 22.2764 22.6272C22.2758 22.641 22.2719 22.6544 22.2651 22.6663C22.2584 22.6781 22.2489 22.688 22.2376 22.6951C21.6142 23.0765 20.9614 23.4024 20.286 23.6692C20.2752 23.6733 20.2655 23.6798 20.2574 23.6883C20.2493 23.6968 20.243 23.7071 20.2391 23.7184C20.2355 23.7294 20.2341 23.741 20.2349 23.7525C20.2357 23.7641 20.2387 23.7754 20.2438 23.7856C20.6188 24.5482 21.0485 25.2763 21.5204 25.965C21.5299 25.9793 21.5435 25.99 21.5593 25.9957C21.575 26.0013 21.592 26.0014 21.6079 25.9962C23.856 25.2731 25.9701 24.1528 27.8594 22.6836C27.8688 22.6768 27.8767 22.6677 27.8824 22.6572C27.8881 22.6467 27.8914 22.635 27.8922 22.623C28.4141 16.9637 27.0188 12.0474 24.1954 7.69022C24.1925 7.68302 24.1883 7.67653 24.1829 7.67116C24.1775 7.66579 24.1711 7.66167 24.1641 7.65906ZM11.3549 19.6417C10.1221 19.6417 9.10801 18.4544 9.10801 16.9982C9.10801 15.5403 10.1033 14.353 11.3549 14.353C12.6158 14.353 13.6205 15.5502 13.6017 16.9982C13.6017 18.4544 12.6064 19.6417 11.3549 19.6417ZM19.661 19.6417C18.4298 19.6417 17.4142 18.4544 17.4142 16.9982C17.4142 15.5403 18.4095 14.353 19.661 14.353C20.922 14.353 21.9282 15.5502 21.9079 16.9982C21.9079 18.4544 20.922 19.6417 19.661 19.6417Z" fill="currentColor"/>
    </g>

    <g id="bigLogo">
            <mask id="path-1-inside-1_1103_3640" fill="currentColor">
                <path fill-rule="evenodd" clip-rule="evenodd" d="M57.5 0H85.75H114V28.25V56.5V84.75H85.75H57.5V56.5H85.75V28.25H57.5V0Z"/>
            </mask>
            <path d="M57.5 0V-1H56.5V0H57.5ZM114 0H115V-1H114V0ZM114 84.75V85.75H115V84.75H114ZM57.5 84.75H56.5V85.75H57.5V84.75ZM57.5 56.5V55.5H56.5V56.5H57.5ZM85.75 56.5V57.5H86.75V56.5H85.75ZM85.75 28.25H86.75V27.25H85.75V28.25ZM57.5 28.25H56.5V29.25H57.5V28.25ZM85.75 -1H57.5V1H85.75V-1ZM114 -1H85.75V1H114V-1ZM115 28.25V0H113V28.25H115ZM115 56.5V28.25H113V56.5H115ZM115 84.75V56.5H113V84.75H115ZM85.75 85.75H114V83.75H85.75V85.75ZM85.75 83.75H57.5V85.75H85.75V83.75ZM58.5 84.75V56.5H56.5V84.75H58.5ZM57.5 57.5H85.75V55.5H57.5V57.5ZM84.75 28.25V56.5H86.75V28.25H84.75ZM57.5 29.25H85.75V27.25H57.5V29.25ZM56.5 0V28.25H58.5V0H56.5Z" fill="#C778DD" mask="url(#path-1-inside-1_1103_3640)"/>
            <mask id="path-3-outside-2_1103_3640" maskUnits="userSpaceOnUse" x="0" y="27.2501" width="59" height="87" fill="black">
                <rect fill="white" y="27.2501" width="59" height="87"/>
                <path fill-rule="evenodd" clip-rule="evenodd" d="M1 28.2501H29.25H57.5V56.5001H29.25V84.7501H57.5V113H29.25H1V84.7501V56.5001V28.2501Z"/>
            </mask>
            <path d="M1 28.2501V27.2501H0V28.2501H1ZM57.5 28.2501H58.5V27.2501H57.5V28.2501ZM57.5 56.5001V57.5001H58.5V56.5001H57.5ZM29.25 56.5001V55.5001H28.25V56.5001H29.25ZM29.25 84.7501H28.25V85.7501H29.25V84.7501ZM57.5 84.7501H58.5V83.7501H57.5V84.7501ZM57.5 113V114H58.5V113H57.5ZM1 113H0V114H1V113ZM29.25 27.2501H1V29.2501H29.25V27.2501ZM57.5 27.2501H29.25V29.2501H57.5V27.2501ZM58.5 56.5001V28.2501H56.5V56.5001H58.5ZM29.25 57.5001H57.5V55.5001H29.25V57.5001ZM30.25 84.7501V56.5001H28.25V84.7501H30.25ZM29.25 85.7501H57.5V83.7501H29.25V85.7501ZM56.5 84.7501V113H58.5V84.7501H56.5ZM57.5 112H29.25V114H57.5V112ZM1 114H29.25V112H1V114ZM0 84.7501V113H2V84.7501H0ZM0 56.5001V84.7501H2V56.5001H0ZM0 28.2501V56.5001H2V28.2501H0Z" fill="#C778DD" mask="url(#path-3-outside-2_1103_3640)"/>
    </g>

    <g id="ticks">
        <rect width="26" height="21" fill="#F5F5F5"/>
        <g id="Home" clip-path="url(#clip0_1103_2563)">
            <rect width="1366" height="3192" transform="translate(-988 -742)" fill="#282C33"/>
            <g id="background">
            </g>
            <g id="quote">
                <rect x="-661.5" y="-83.5" width="711" height="94" fill="#282C33"/>
                <g id="Frame 49">
                    <rect x="-113.5" y="10.5" width="163" height="64" stroke="#ABB2BF"/>
                </g>
                <g id="Frame 50">
                    <rect width="41.472" height="28.704" transform="translate(-8 -4)" fill="#282C33"/>
                    <path id="&#226;&#128;&#156;" d="M10.56 15.616C10.56 17.0453 10.0373 18.2507 8.992 19.232C7.968 20.2133 6.72 20.704 5.248 20.704C3.73333 20.704 2.47467 20.2133 1.472 19.232C0.490667 18.2507 0 17.0453 0 15.616C0 14.9333 0.096 14.208 0.288 13.44C0.48 12.672 0.864 11.68 1.44 10.464L6.4 0H11.2L8.544 11.584C9.14133 12.0107 9.62133 12.576 9.984 13.28C10.368 13.9627 10.56 14.7413 10.56 15.616ZM24.8 15.616C24.8 17.0453 24.2773 18.2507 23.232 19.232C22.1867 20.2133 20.9387 20.704 19.488 20.704C18.016 20.704 16.768 20.2133 15.744 19.232C14.7413 18.2507 14.24 17.0453 14.24 15.616C14.24 14.9333 14.336 14.208 14.528 13.44C14.72 12.672 15.1147 11.68 15.712 10.464L20.704 0H25.472L22.784 11.584C23.4027 12.0107 23.8933 12.576 24.256 13.28C24.6187 13.9627 24.8 14.7413 24.8 15.616Z" fill="#ABB2BF"/>
                </g>
                <rect x="-661.5" y="-83.5" width="711" height="94" stroke="#ABB2BF"/>
            </g>
        </g>
        <defs>
            <clipPath id="clip0_1103_2563">
                <rect width="1366" height="3192" fill="white" transform="translate(-988 -742)"/>
            </clipPath>
        </defs>
    </g>

    <g id="Dots">
        <circle cx="2" cy="2" r="2" fill="#ABB2BF"/>
        <circle cx="22" cy="2" r="2" fill="#ABB2BF"/>
        <circle cx="42" cy="2" r="2" fill="#ABB2BF"/>
        <circle cx="62" cy="2" r="2" fill="#ABB2BF"/>
        <circle cx="82" cy="2" r="2" fill="#ABB2BF"/>
        <circle cx="2" cy="22" r="2" fill="#ABB2BF"/>
        <circle cx="22" cy="22" r="2" fill="#ABB2BF"/>
        <circle cx="42" cy="22" r="2" fill="#ABB2BF"/>
        <circle cx="62" cy="22" r="2" fill="#ABB2BF"/>
        <circle cx="82" cy="22" r="2" fill="#ABB2BF"/>
        <circle cx="2" cy="42" r="2" fill="#ABB2BF"/>
        <circle cx="22" cy="42" r="2" fill="#ABB2BF"/>
        <circle cx="42" cy="42" r="2" fill="#ABB2BF"/>
        <circle cx="62" cy="42" r="2" fill="#ABB2BF"/>
        <circle cx="82" cy="42" r="2" fill="#ABB2BF"/>
        <circle cx="2" cy="62" r="2" fill="#ABB2BF"/>
        <circle cx="22" cy="62" r="2" fill="#ABB2BF"/>
        <circle cx="42" cy="62" r="2" fill="#ABB2BF"/>
        <circle cx="62" cy="62" r="2" fill="#ABB2BF"/>
        <circle cx="82" cy="62" r="2" fill="#ABB2BF"/>
        <circle cx="2" cy="82" r="2" fill="#ABB2BF"/>
        <circle cx="22" cy="82" r="2" fill="#ABB2BF"/>
        <circle cx="42" cy="82" r="2" fill="#ABB2BF"/>
        <circle cx="62" cy="82" r="2" fill="#ABB2BF"/>
        <circle cx="82" cy="82" r="2" fill="#ABB2BF"/>
    </g>

    <g id='Square'>
        <rect x="0.5" y="0.5" width="85" height="85" stroke="#ABB2BF"/>
    </g>

</svg>
